<svg width="532" height="175" viewBox="0 0 532 175" fill="none" xmlns="http://www.w3.org/2000/svg">
<g clip-path="url(#clip0_42_324)">
<mask id="path-1-outside-1_42_324" maskUnits="userSpaceOnUse" x="95" y="122" width="331" height="48" fill="black">
<rect fill="white" x="95" y="122" width="331" height="48"/>
<path d="M97.2188 168V124.96H140.019V168H127.539V132.4L130.339 135.2H106.819L109.619 132.4V168H97.2188ZM151.984 168V124.96H164.384V150.56L185.344 124.96H196.784V168H184.384V142.4L163.504 168H151.984ZM239.261 168L224.861 147.6L235.021 141.6L253.981 168H239.261ZM208.781 168V124.96H221.261V168H208.781ZM217.581 151.68V141.68H232.621V151.68H217.581ZM236.221 147.92L224.541 146.64L239.661 124.96H252.941L236.221 147.92ZM264.109 168V124.96H276.509V141.76H295.229V124.96H307.709V168H295.229V151.92H276.509V168H264.109ZM319.656 168V124.96H332.056V150.56L353.016 124.96H364.456V168H352.056V142.4L331.176 168H319.656ZM406.933 168L392.533 147.6L402.693 141.6L421.653 168H406.933ZM376.453 168V124.96H388.933V168H376.453ZM385.253 151.68V141.68H400.293V151.68H385.253ZM403.893 147.92L392.213 146.64L407.333 124.96H420.613L403.893 147.92Z"/>
</mask>
<path d="M97.2188 168H95.2188V170H97.2188V168ZM97.2188 124.96V122.96H95.2188V124.96H97.2188ZM140.019 124.96H142.019V122.96H140.019V124.96ZM140.019 168V170H142.019V168H140.019ZM127.539 168H125.539V170H127.539V168ZM127.539 132.4L128.953 130.986L125.539 127.572V132.4H127.539ZM130.339 135.2V137.2H135.167L131.753 133.786L130.339 135.2ZM106.819 135.2L105.405 133.786L101.99 137.2H106.819V135.2ZM109.619 132.4H111.619V127.572L108.205 130.986L109.619 132.4ZM109.619 168V170H111.619V168H109.619ZM99.2188 168V124.96H95.2188V168H99.2188ZM97.2188 126.96H140.019V122.96H97.2188V126.96ZM138.019 124.96V168H142.019V124.96H138.019ZM140.019 166H127.539V170H140.019V166ZM129.539 168V132.4H125.539V168H129.539ZM126.125 133.814L128.925 136.614L131.753 133.786L128.953 130.986L126.125 133.814ZM130.339 133.2H106.819V137.2H130.339V133.2ZM108.233 136.614L111.033 133.814L108.205 130.986L105.405 133.786L108.233 136.614ZM107.619 132.4V168H111.619V132.4H107.619ZM109.619 166H97.2188V170H109.619V166ZM151.984 168H149.984V170H151.984V168ZM151.984 124.96V122.96H149.984V124.96H151.984ZM164.384 124.96H166.384V122.96H164.384V124.96ZM164.384 150.56H162.384V156.16L165.932 151.827L164.384 150.56ZM185.344 124.96V122.96H184.397L183.797 123.693L185.344 124.96ZM196.784 124.96H198.784V122.96H196.784V124.96ZM196.784 168V170H198.784V168H196.784ZM184.384 168H182.384V170H184.384V168ZM184.384 142.4H186.384V136.784L182.835 141.136L184.384 142.4ZM163.504 168V170H164.454L165.054 169.264L163.504 168ZM153.984 168V124.96H149.984V168H153.984ZM151.984 126.96H164.384V122.96H151.984V126.96ZM162.384 124.96V150.56H166.384V124.96H162.384ZM165.932 151.827L186.892 126.227L183.797 123.693L162.837 149.293L165.932 151.827ZM185.344 126.96H196.784V122.96H185.344V126.96ZM194.784 124.96V168H198.784V124.96H194.784ZM196.784 166H184.384V170H196.784V166ZM186.384 168V142.4H182.384V168H186.384ZM182.835 141.136L161.955 166.736L165.054 169.264L185.934 143.664L182.835 141.136ZM163.504 166H151.984V170H163.504V166ZM239.261 168L237.627 169.153L238.225 170H239.261V168ZM224.861 147.6L223.844 145.878L221.976 146.981L223.227 148.753L224.861 147.6ZM235.021 141.6L236.646 140.433L235.579 138.948L234.004 139.878L235.021 141.6ZM253.981 168V170H257.88L255.606 166.833L253.981 168ZM208.781 168H206.781V170H208.781V168ZM208.781 124.96V122.96H206.781V124.96H208.781ZM221.261 124.96H223.261V122.96H221.261V124.96ZM221.261 168V170H223.261V168H221.261ZM217.581 151.68H215.581V153.68H217.581V151.68ZM217.581 141.68V139.68H215.581V141.68H217.581ZM232.621 141.68H234.621V139.68H232.621V141.68ZM232.621 151.68V153.68H234.621V151.68H232.621ZM236.221 147.92L236.003 149.908L237.156 150.034L237.838 149.097L236.221 147.92ZM224.541 146.64L222.901 145.496L220.972 148.261L224.323 148.628L224.541 146.64ZM239.661 124.96V122.96H238.618L238.021 123.816L239.661 124.96ZM252.941 124.96L254.558 126.137L256.872 122.96H252.941V124.96ZM240.895 166.847L226.495 146.447L223.227 148.753L237.627 169.153L240.895 166.847ZM225.878 149.322L236.038 143.322L234.004 139.878L223.844 145.878L225.878 149.322ZM233.397 142.767L252.357 169.167L255.606 166.833L236.646 140.433L233.397 142.767ZM253.981 166H239.261V170H253.981V166ZM210.781 168V124.96H206.781V168H210.781ZM208.781 126.96H221.261V122.96H208.781V126.96ZM219.261 124.96V168H223.261V124.96H219.261ZM221.261 166H208.781V170H221.261V166ZM219.581 151.68V141.68H215.581V151.68H219.581ZM217.581 143.68H232.621V139.68H217.581V143.68ZM230.621 141.68V151.68H234.621V141.68H230.621ZM232.621 149.68H217.581V153.68H232.621V149.68ZM236.439 145.932L224.759 144.652L224.323 148.628L236.003 149.908L236.439 145.932ZM226.182 147.784L241.302 126.104L238.021 123.816L222.901 145.496L226.182 147.784ZM239.661 126.96H252.941V122.96H239.661V126.96ZM251.325 123.783L234.605 146.743L237.838 149.097L254.558 126.137L251.325 123.783ZM264.109 168H262.109V170H264.109V168ZM264.109 124.96V122.96H262.109V124.96H264.109ZM276.509 124.96H278.509V122.96H276.509V124.96ZM276.509 141.76H274.509V143.76H276.509V141.76ZM295.229 141.76V143.76H297.229V141.76H295.229ZM295.229 124.96V122.96H293.229V124.96H295.229ZM307.709 124.96H309.709V122.96H307.709V124.96ZM307.709 168V170H309.709V168H307.709ZM295.229 168H293.229V170H295.229V168ZM295.229 151.92H297.229V149.92H295.229V151.92ZM276.509 151.92V149.92H274.509V151.92H276.509ZM276.509 168V170H278.509V168H276.509ZM266.109 168V124.96H262.109V168H266.109ZM264.109 126.96H276.509V122.96H264.109V126.96ZM274.509 124.96V141.76H278.509V124.96H274.509ZM276.509 143.76H295.229V139.76H276.509V143.76ZM297.229 141.76V124.96H293.229V141.76H297.229ZM295.229 126.96H307.709V122.96H295.229V126.96ZM305.709 124.96V168H309.709V124.96H305.709ZM307.709 166H295.229V170H307.709V166ZM297.229 168V151.92H293.229V168H297.229ZM295.229 149.92H276.509V153.92H295.229V149.92ZM274.509 151.92V168H278.509V151.92H274.509ZM276.509 166H264.109V170H276.509V166ZM319.656 168H317.656V170H319.656V168ZM319.656 124.96V122.96H317.656V124.96H319.656ZM332.056 124.96H334.056V122.96H332.056V124.96ZM332.056 150.56H330.056V156.16L333.604 151.827L332.056 150.56ZM353.016 124.96V122.96H352.069L351.469 123.693L353.016 124.96ZM364.456 124.96H366.456V122.96H364.456V124.96ZM364.456 168V170H366.456V168H364.456ZM352.056 168H350.056V170H352.056V168ZM352.056 142.4H354.056V136.784L350.506 141.136L352.056 142.4ZM331.176 168V170H332.126L332.726 169.264L331.176 168ZM321.656 168V124.96H317.656V168H321.656ZM319.656 126.96H332.056V122.96H319.656V126.96ZM330.056 124.96V150.56H334.056V124.96H330.056ZM333.604 151.827L354.564 126.227L351.469 123.693L330.509 149.293L333.604 151.827ZM353.016 126.96H364.456V122.96H353.016V126.96ZM362.456 124.96V168H366.456V124.96H362.456ZM364.456 166H352.056V170H364.456V166ZM354.056 168V142.4H350.056V168H354.056ZM350.506 141.136L329.626 166.736L332.726 169.264L353.606 143.664L350.506 141.136ZM331.176 166H319.656V170H331.176V166ZM406.933 168L405.299 169.153L405.897 170H406.933V168ZM392.533 147.6L391.516 145.878L389.648 146.981L390.899 148.753L392.533 147.6ZM402.693 141.6L404.318 140.433L403.251 138.948L401.676 139.878L402.693 141.6ZM421.653 168V170H425.552L423.278 166.833L421.653 168ZM376.453 168H374.453V170H376.453V168ZM376.453 124.96V122.96H374.453V124.96H376.453ZM388.933 124.96H390.933V122.96H388.933V124.96ZM388.933 168V170H390.933V168H388.933ZM385.253 151.68H383.253V153.68H385.253V151.68ZM385.253 141.68V139.68H383.253V141.68H385.253ZM400.293 141.68H402.293V139.68H400.293V141.68ZM400.293 151.68V153.68H402.293V151.68H400.293ZM403.893 147.92L403.675 149.908L404.828 150.034L405.51 149.097L403.893 147.92ZM392.213 146.64L390.573 145.496L388.644 148.261L391.995 148.628L392.213 146.64ZM407.333 124.96V122.96H406.29L405.693 123.816L407.333 124.96ZM420.613 124.96L422.23 126.137L424.544 122.96H420.613V124.96ZM408.567 166.847L394.167 146.447L390.899 148.753L405.299 169.153L408.567 166.847ZM393.55 149.322L403.71 143.322L401.676 139.878L391.516 145.878L393.55 149.322ZM401.069 142.767L420.029 169.167L423.278 166.833L404.318 140.433L401.069 142.767ZM421.653 166H406.933V170H421.653V166ZM378.453 168V124.96H374.453V168H378.453ZM376.453 126.96H388.933V122.96H376.453V126.96ZM386.933 124.96V168H390.933V124.96H386.933ZM388.933 166H376.453V170H388.933V166ZM387.253 151.68V141.68H383.253V151.68H387.253ZM385.253 143.68H400.293V139.68H385.253V143.68ZM398.293 141.68V151.68H402.293V141.68H398.293ZM400.293 149.68H385.253V153.68H400.293V149.68ZM404.111 145.932L392.431 144.652L391.995 148.628L403.675 149.908L404.111 145.932ZM393.854 147.784L408.974 126.104L405.693 123.816L390.573 145.496L393.854 147.784ZM407.333 126.96H420.613V122.96H407.333V126.96ZM418.996 123.783L402.276 146.743L405.51 149.097L422.23 126.137L418.996 123.783Z" fill="white" mask="url(#path-1-outside-1_42_324)"/>
<path d="M75.2747 24.2974C76.3323 26.5019 76.4104 28.7405 76.0738 31.1337C75.5452 36.0551 74.3171 41.001 72.3796 45.6915C71.6134 47.8195 70.7073 49.9525 69.6563 51.9503C63.7901 64.4827 56.3409 75.8096 46.7441 85.8106C42.2784 90.3092 37.5182 94.3978 32.0339 97.8113C28.4694 100.037 24.7504 101.848 20.4423 102.839C17.8035 103.491 15.0052 103.589 12.3175 102.842C8.50073 101.855 6.03912 99.5596 4.78788 95.8209C4.00524 93.4668 3.63747 90.9581 3.68944 88.4348C3.85511 81.1446 5.00019 73.8201 7.84379 66.9967C12.1092 56.7616 18.2423 47.8622 26.0936 40.0234C32.7344 33.6277 40.2636 28.6019 48.9854 25.6357C51.0646 25.0028 52.8492 23.9598 54.7739 22.912C56.9685 21.5746 59.3177 20.6521 61.667 19.7295C63.3313 19.2512 65.0054 19.0526 66.6941 19.2738C67.2587 19.3942 67.8379 19.9343 68.2674 20.1995L68.1226 20.0644C68.8222 20.04 69.3867 20.1604 70.0912 20.2759C72.4844 20.6126 74.2171 22.093 75.2747 24.2974ZM71.9936 34.6382C72.4751 32.38 72.5368 30.1365 72.5985 27.893C72.4959 24.9548 71.5734 22.6056 68.8564 21.0194C68.5717 20.8893 68.4171 20.4744 68.2674 20.1995C65.2039 20.7267 62.1502 21.5338 59.4008 23.0306C58.9908 23.3251 58.7208 23.6147 58.5906 23.8994C58.3206 24.189 59.0446 24.8642 59.7539 25.1196C60.1834 25.3848 60.6032 25.3701 61.0278 25.4954C64.1499 26.6471 66.1674 28.2577 65.2044 32.774C65.084 33.3386 64.9636 33.9031 64.7034 34.4726C64.5781 34.8972 64.3129 35.3267 63.8981 35.4813C63.6231 35.631 63.2083 35.7855 62.7836 35.6603C62.5038 35.67 61.9295 35.2698 61.9197 34.99C61.7505 34.1554 61.8611 33.311 61.8367 32.6115C61.7976 31.4921 61.9033 30.5079 61.8642 29.3885C61.83 28.4091 60.382 27.0588 59.3977 26.9531C55.0408 26.5449 51.0126 27.5261 47.6124 30.4466C43.8072 33.8014 40.1468 37.2913 37.3502 41.4514C36.545 42.4601 35.8796 43.464 35.2142 44.4678C34.814 45.0421 34.4089 45.4765 34.0038 45.9109C33.6036 46.4852 32.6242 46.5194 32.3298 46.1095C32.1801 45.8345 32.0206 45.2797 32.1508 44.995C33.1919 42.7173 34.6626 40.7048 36.1332 38.6922C36.6684 37.9731 37.2086 37.3939 37.0393 36.5593C36.4797 36.5788 35.7752 36.4633 35.3701 36.8977C33.3203 38.3702 31.4152 39.9776 29.6549 41.7201C24.5092 46.8028 20.0825 52.4207 16.375 58.5739C12.8025 64.5822 10.2192 70.8362 8.63487 77.6156C7.79715 81.7073 7.10424 85.9341 7.25082 90.1315C7.33877 92.65 7.98149 95.009 9.04395 97.3533C10.7052 100.797 14.8311 102.615 18.5795 101.643C23.9971 100.333 28.8012 97.5039 33.171 94.2694C38.2306 90.7307 42.7061 86.5119 46.6073 81.893C55.7599 71.2071 62.9147 59.4702 68.2114 46.6776C69.8984 42.8363 71.016 38.7348 71.9936 34.6382ZM38.2497 35.1162C37.6949 35.2756 37.145 35.575 37.1744 36.4145C37.8739 36.3901 38.2741 35.8157 38.2497 35.1162ZM85.1069 70.7426C85.0922 70.3228 85.1882 69.0587 85.1442 67.7995C85.1198 67.0999 83.9711 66.2995 83.2716 66.3239C82.437 66.4932 81.5975 66.5225 80.7726 66.9715C76.0937 69.3763 72.8628 73.1313 71.075 78.0968C70.5691 79.6554 70.4878 81.3392 70.9662 83.0035C71.8563 88.4358 84.5184 81.97 88.9157 75.5126C92.1173 70.918 92.3709 66.1463 89.9564 61.1875C89.2031 59.6729 88.1748 58.3079 87.0115 57.0878C85.8384 55.5878 84.3953 54.3774 83.2223 52.8775C81.9142 51.5223 80.7411 50.0223 79.708 48.5175C76.4637 43.8678 76.5774 39.101 79.4943 34.3763C80.6949 32.6533 82.0354 30.9255 83.5256 29.4726C85.9757 27.4259 88.2858 25.384 90.8807 23.4723C98.2602 18.1715 106.084 13.5557 114.352 9.62471C118.206 7.66901 122.075 6.13306 126.238 5.00708C128.177 4.37902 130.271 4.16582 132.365 3.95261C134.179 3.74918 135.737 4.25509 137.176 5.32555C138.324 6.12595 138.923 7.22573 138.967 8.48496C138.881 10.0289 138.65 11.4378 138.279 12.8516C137.156 16.8132 135.175 20.2445 132.19 23.0103C131.92 23.2999 131.505 23.4545 131.085 23.4692C130.66 23.3439 130.371 23.0738 130.086 22.9437C129.941 22.8087 129.792 22.5337 129.927 22.3889C130.182 21.6796 130.573 20.8254 130.968 20.1112C132.839 17.5243 134.285 14.8122 135.157 11.6999C135.398 10.5708 135.494 9.30668 135.45 8.04745C135.555 7.06316 134.257 5.98782 133.287 6.30184C131.198 6.65496 129.109 7.00808 127.17 7.63614C124.541 8.56846 121.912 9.50078 119.433 10.708C109.915 14.9628 101.137 20.3124 92.812 26.6268C90.7621 28.0992 88.8619 29.8466 87.0968 31.4492C85.4667 32.907 84.1262 34.6348 83.2103 36.4879C80.8335 40.6334 80.8402 44.8357 83.6451 48.9403C84.9679 50.7152 86.5704 52.4804 88.173 54.2455C89.6357 56.0156 91.2334 57.6408 92.561 59.5556C94.3182 61.7356 95.3855 64.2199 95.6232 67.0133C96.2237 72.1755 94.4114 76.4413 90.7559 80.0711C88.0456 82.6873 84.8959 84.7585 81.3021 86.1447C75.2338 88.8782 67.4603 86.9083 66.4205 81.2011C66.0772 79.392 66.1487 77.4283 66.9295 75.72C68.7222 70.8945 72.0931 67.1346 76.9119 64.7249C80.221 63.2085 83.4488 63.376 86.5953 65.2273C87.3096 65.6226 87.8985 66.4425 88.3427 67.1274C88.6372 67.5374 88.8015 68.2321 88.8211 68.7918C88.4746 70.9051 87.8435 72.8884 86.3581 74.4812C86.0881 74.7708 85.5333 74.9302 85.2486 74.8001C84.8288 74.8148 84.6694 74.26 84.5197 73.985C84.3749 73.85 84.3651 73.5702 84.5002 73.4254C84.6156 72.7209 84.736 72.1564 85.1069 70.7426ZM95.8378 81.4346L96.0493 79.466C97.7687 72.5418 101.491 66.8084 107.221 62.4057C107.906 61.9616 108.74 61.7923 109.589 62.0428C109.729 62.038 110.014 62.1681 110.159 62.3031C110.174 62.7229 110.333 63.2776 110.198 63.4225C108.992 65.0055 107.777 66.3087 106.572 67.8917C103.756 71.4922 101.514 75.4929 100.126 79.884C99.7506 81.1579 99.6546 82.422 99.9784 83.6714C100.717 84.7663 102.097 84.1578 104.282 82.5406C107.282 80.1945 109.992 77.5783 112.553 74.6871C115.793 71.2119 119.174 67.7318 122.554 64.2517C122.96 63.8173 123.505 63.378 124.05 62.9387C125.009 62.3449 125.989 62.3107 127.118 62.5514C127.827 62.8068 128.561 63.7618 128.301 64.3312L126.739 67.7478C125.423 70.1752 124.107 72.6026 123.071 75.0203C122.55 76.1591 122.314 77.4281 122.078 78.6971C122.088 78.977 122.248 79.5317 122.532 79.6619C122.822 79.9319 123.381 79.9124 123.796 79.7578C124.766 79.4438 125.731 78.9898 126.551 78.4009C128.875 76.7788 131.065 75.3014 133.1 73.4092C136.091 70.7833 138.931 67.8824 141.776 65.1214C142.727 64.2477 143.677 63.374 144.776 62.7753C145.186 62.4808 145.896 62.7362 146.46 62.8566C147.025 62.9769 147.319 63.3869 147.194 63.8115C146.674 64.9504 146.153 66.0893 145.492 67.233C144.577 69.0861 143.801 70.9343 143.314 73.0526C142.838 75.4507 143.475 77.6698 145.218 79.43C146.236 80.5151 147.39 81.4555 148.543 82.3958C149.123 82.9359 149.967 83.0465 150.792 82.5974C152.167 81.849 153.401 81.1054 154.781 80.4969C159.465 78.2321 164.139 75.6874 169.122 73.9725C169.257 73.8277 169.542 73.9578 169.687 74.0928C170.251 74.2132 170.261 74.493 169.716 74.9323C169.031 75.3765 168.206 75.8256 167.516 76.1298C165.452 77.1825 163.247 78.2401 161.323 79.2879C158.019 80.9442 154.999 82.7307 151.835 84.3821C150.875 84.976 150.349 85.9749 150.244 86.9592L150.268 87.6588C150.753 93.5254 147.103 97.2951 143.022 100.8C142.477 101.239 141.783 101.403 141.233 101.703C139.024 102.62 136.292 100.614 136.489 98.2261C136.806 95.2733 137.832 92.5758 140.137 90.394C141.763 88.7963 143.533 87.3337 145.303 85.871C146.123 85.282 146.214 83.878 145.485 83.0629C144.756 82.2479 144.027 81.4328 143.303 80.7577C141.001 79.0169 139.799 76.6775 139.556 73.7442C139.541 73.3244 139.527 72.9047 139.377 72.6297C139.222 72.2149 138.653 71.9546 138.243 72.2491L133.893 76.0432C131.718 77.9403 129.253 79.5673 126.639 80.9193C125.394 81.3831 124.149 81.8468 123.04 82.1657C122.34 82.1901 121.776 82.0698 121.076 82.0942C119.243 81.738 118.214 80.373 118.426 78.4044C118.652 76.8556 119.153 75.1571 119.519 73.6034C119.514 73.4634 119.364 73.1885 119.22 73.0535C119.075 72.9184 118.795 72.9282 118.66 73.073C117.84 73.662 117.02 74.251 116.345 74.975C114.045 77.2967 111.884 79.6135 109.574 81.6553C106.458 84.7059 103.714 86.3427 100.216 86.4649C97.5479 86.2779 95.8103 84.6575 95.8378 81.4346ZM140.026 99.2233C140.305 99.2135 140.59 99.3437 140.59 99.3437C143.315 97.1472 145.471 94.6905 146.618 91.4285C146.878 90.8591 146.998 90.2945 146.834 89.5998C146.824 89.32 146.534 89.0499 146.245 88.7799C146.1 88.6449 145.68 88.6595 145.545 88.8043C143.351 90.1417 141.59 91.8842 140.409 94.1668C139.754 95.4505 139.238 96.7293 139.292 98.2683C139.446 98.6832 139.736 98.9532 140.026 99.2233ZM168.497 77.0762C168.439 75.3972 168.5 73.1537 169.406 71.0207C171.219 66.7549 174.184 63.4294 178.014 60.7741C180.479 59.1471 184.671 58.8606 186.409 60.4809C187.712 61.6962 187.076 63.5395 186.136 64.693C183.58 67.7241 180.865 70.2003 177.286 72.0064C176.871 72.1609 176.311 72.1805 175.742 71.9202C175.742 71.9202 175.592 71.6452 175.587 71.5053C175.722 71.3605 175.987 70.931 176.262 70.7813L181.698 65.9687C182.653 65.2349 183.458 64.2262 183.838 63.0922C183.959 62.5277 183.934 61.8281 183.37 61.7077C182.94 61.4426 182.521 61.4572 181.971 61.7566C177.871 64.7015 174.92 68.4467 173.117 72.9924C171.6 77.6682 173.18 82.7962 176.957 82.6643C178.077 82.6252 179.046 82.3112 180.011 81.8572C182.625 80.5052 184.94 78.6032 186.966 76.4312C188.181 75.128 189.112 73.6947 190.621 72.8014C191.036 72.6469 191.316 72.6371 191.611 73.0471C191.755 73.1821 191.76 73.322 191.625 73.4668C189.224 76.9127 186.528 79.9486 182.824 82.1793C181.449 82.9277 180.07 83.5362 178.4 83.8747C173.253 84.8949 169.368 81.9487 168.497 77.0762ZM210.147 72.9601C209.927 66.6639 203.929 75.4186 199.289 78.9427C197.654 80.2605 195.87 81.3035 193.65 81.9413C192.821 82.2504 191.836 82.1447 190.842 81.7592C189.703 81.2386 189.254 80.4138 189.066 79.0195C188.911 78.6047 189.027 77.9002 189.012 77.4804C189.238 75.9316 189.469 74.5227 190.26 73.0942C191.802 69.118 194.488 65.8022 197.613 63.0315C198.023 62.737 198.722 62.7126 199.282 62.693C199.562 62.6832 199.991 62.9484 200.141 63.2234C200.141 63.2234 200.011 63.5081 200.016 63.648C198.54 65.5206 196.915 67.1183 195.579 68.9861C193.569 71.5778 191.987 74.4347 191.54 77.6723C191.42 78.2369 191.439 78.7965 191.459 79.3562C191.488 80.1957 192.487 80.7211 193.182 80.5568C195.121 79.9287 196.901 78.7459 198.531 77.2881C201.796 74.5125 204.777 71.6067 207.897 68.696C211.287 65.4957 214.668 62.0156 218.053 58.6755C218.463 58.381 218.863 57.8067 219.418 57.6472C219.833 57.4926 220.538 57.6081 221.102 57.7285C221.527 57.8537 221.831 58.5435 221.431 59.1179C220.365 60.696 219.3 62.2742 218.239 63.9922C216.908 65.9999 215.582 68.1475 214.396 70.2902L213.25 73.5522C212.778 76.0902 213.276 78.3142 215.033 80.4942C215.757 81.1693 216.751 81.5549 217.566 80.826C218.801 80.0824 220.026 79.059 221.256 78.1756C227.13 73.908 233.589 70.3204 240.207 67.2875C240.762 67.1281 241.047 67.2582 241.197 67.5332C241.206 67.813 240.946 68.3824 240.811 68.5272C239.436 69.2757 238.066 70.164 236.687 70.7725C231.053 73.9111 225.579 77.6044 220.394 81.5677C219.854 82.1469 219.309 82.5862 218.908 83.1605C218.638 83.4501 218.373 83.8797 218.528 84.2945C218.702 85.269 219.021 86.3786 219.205 87.6329C219.524 88.7425 219.423 89.8667 219.177 90.8558C218.064 95.0973 215.504 97.9884 211.495 99.5292C209.841 100.287 208.157 100.206 206.453 99.5652C204.61 98.9292 203.847 97.1347 204.343 95.2963C205.254 93.3032 206.585 91.2956 208.07 89.7028C209.83 87.9603 211.731 86.2129 213.346 84.3354C213.751 83.901 213.867 83.1965 213.572 82.7865C213.427 82.6515 213.417 82.3717 213.278 82.3766C213.123 81.9617 212.973 81.6868 212.684 81.4167C210.357 78.9764 209.7 76.1977 210.147 72.9601ZM216.296 88.575C216.276 88.0154 216.262 87.5956 215.962 87.0457C215.812 86.7708 215.103 86.5154 214.968 86.6602C211.828 89.0112 209.407 91.8974 207.701 95.179C207.441 95.7484 207.465 96.448 207.34 96.8726C207.379 97.9919 208.523 98.6524 209.487 98.1985C213.076 96.6723 215.227 94.0757 216.359 90.3939L216.296 88.575ZM235.995 74.7191C235.936 73.0401 235.998 70.7966 236.904 68.6637C238.717 64.3978 241.682 61.0723 245.512 58.417C247.977 56.79 252.169 56.5035 253.907 58.1239C255.21 59.3391 254.574 61.1824 253.634 62.336C251.078 65.367 248.363 67.8433 244.784 69.6493C244.369 69.8038 243.809 69.8234 243.24 69.5631C243.24 69.5631 243.09 69.2882 243.085 69.1482C243.22 69.0034 243.485 68.5739 243.76 68.4242L249.195 63.6116C250.15 62.8778 250.956 61.8691 251.336 60.7352C251.457 60.1706 251.432 59.471 250.868 59.3507C250.438 59.0855 250.019 59.1001 249.469 59.3995C245.369 62.3444 242.418 66.0897 240.615 70.6353C239.098 75.3112 240.678 80.4391 244.455 80.3072C245.575 80.2681 246.544 79.9541 247.509 79.5002C250.123 78.1481 252.438 76.2461 254.464 74.0741C255.679 72.7709 256.61 71.3376 258.119 70.4443C258.534 70.2898 258.814 70.28 259.109 70.69C259.253 70.825 259.258 70.9649 259.123 71.1097C256.722 74.5556 254.026 77.5915 250.322 79.8222C248.947 80.5706 247.568 81.1791 245.898 81.5176C240.751 82.5379 236.866 79.5917 235.995 74.7191ZM260.151 71.0738C254.039 84.5954 257.976 72.9709 268.36 65.4639C272.58 61.9545 280.926 60.2622 278.964 64.2531L277.456 69.2087C276.435 72.0461 275.833 74.8689 275.795 77.812C275.903 80.8901 277.052 81.6905 279.246 80.3531C280.761 79.5997 282.271 78.7065 283.78 77.8133C287.76 75.433 291.724 72.6329 295.409 69.8426C295.819 69.5481 296.374 69.3886 296.934 69.3691C297.074 69.3642 297.218 69.4992 297.363 69.6343C297.513 69.9092 297.667 70.3241 297.672 70.464C297.407 70.8935 297.147 71.4629 296.737 71.7574C292.382 75.4116 287.867 78.5111 282.923 81.3454C281.963 81.9392 280.719 82.4029 279.609 82.7218C275.166 83.8576 271.315 81.8908 271.814 76.1299C272.016 73.8815 272.357 71.6282 273.124 69.5001C274.261 65.9583 275.157 63.5455 271.617 66.4709C267.392 69.8404 263.602 73.615 259.961 77.6645L253.089 85.4691C250.128 88.9345 247.452 92.5301 245.21 96.5308C243.889 98.8183 242.423 100.971 240.958 103.123C240.557 103.698 240.152 104.132 239.607 104.571C239.067 105.15 238.368 105.175 237.658 104.919C236.954 104.804 236.505 103.979 236.765 103.41C237.025 102.84 237.151 102.416 237.556 101.981C243.428 93.6512 248.293 84.5159 253.446 75.6506L259.391 65.3569C263.219 58.6392 267.766 52.4567 272.457 46.4093C272.998 45.8301 273.678 45.246 274.358 44.6619C274.633 44.5122 275.047 44.3577 275.327 44.3479C275.607 44.3381 276.032 44.4634 276.181 44.7383C276.466 44.8685 276.626 45.4232 276.491 45.568C275.83 46.7118 275.305 47.7107 274.639 48.7146L267.841 58.6179C265.039 62.6381 262.523 66.7884 260.151 71.0738ZM306.667 73.3718C299.035 75.4595 316.878 76.9377 324.06 74.0252C331.562 72.2223 330.247 66.6648 331.531 67.3204C331.965 67.7255 332.115 68.0004 331.595 69.1393C331.084 70.558 330.288 71.8465 329.198 72.7251C322.653 77.8567 308.387 78.4949 299.676 73.7561C299.107 73.4958 298.272 73.665 298.012 74.2344C296.551 76.5268 295.235 78.9542 293.774 81.2466C293.509 81.6761 292.964 82.1154 292.559 82.5498C292.009 82.8492 291.304 82.7337 290.725 82.1936C290.436 81.9235 290.281 81.5087 290.131 81.2337C290.117 80.814 290.242 80.3893 290.367 79.9647C293.876 72.1375 297.67 64.4404 302.318 57.1337C302.848 56.2747 303.518 55.4108 304.193 54.6868C304.864 53.8229 305.838 53.6488 307.117 54.1644C307.542 54.2897 307.696 54.7046 307.571 55.1292C307.46 55.9736 307.21 56.8228 306.815 57.537L302.081 66.3877C301.55 67.2467 301.165 68.2407 300.634 69.0998C299.984 70.5234 300.857 71.4734 302.401 71.5596C303.665 71.6556 304.92 71.4717 306.164 71.0079C308.919 69.651 310.949 67.6189 311.966 64.6416L313.078 60.4002C313.449 58.9864 314.105 57.7027 315.769 57.2243C316.744 57.0502 316.994 56.201 317.389 55.4867C318.06 54.6228 319.464 54.7139 319.918 55.6786C320.212 56.0886 320.367 56.5035 320.521 56.9183C320.845 58.1678 320.474 59.5816 319.085 59.9103C317.835 60.2341 317.155 60.8182 316.915 61.9472C316.534 63.0812 316.298 64.3502 315.917 65.4842C314.901 68.4615 313.015 70.6286 310.261 71.9856C309.021 72.5892 307.912 72.9081 306.667 73.3718ZM365.625 72.2936C360.482 73.4538 356.722 70.0829 352.883 72.4584C351.383 73.6314 349.883 74.8045 348.233 75.7026C342.479 79.4057 332.391 79.3377 331.027 72.3811C330.021 67.6533 331.269 63.2671 334.07 59.2469C335.666 56.8097 337.842 54.9126 340.591 53.4158C342.795 52.3582 345.029 52.1401 347.312 53.3211C347.741 53.5863 347.756 54.0061 347.491 54.4356C347.496 54.5755 347.361 54.7203 347.226 54.8651L346.526 54.8895C345.532 54.504 344.553 54.5382 343.593 55.132C339.618 57.6523 337.072 60.9632 335.545 65.3591C331.488 77.5482 339.281 80.0777 350.306 70.8673C351.261 70.1336 351.227 69.1542 350.628 68.0544C350.478 67.7794 350.184 67.3695 349.894 67.0994C347.688 64.0946 347.576 60.8765 348.438 57.4844C349.671 52.6784 355.633 50.9293 359.678 54.4302C360.836 55.5105 361.445 56.8901 361.499 58.4291C361.548 59.8283 361.456 61.2323 360.666 62.6608C354.606 73.659 363.401 72.7915 372.835 66.1582C376.125 64.0821 376.631 62.5235 378.064 63.4541C378.494 63.7192 378.503 63.9991 377.838 65.0029C374.602 68.618 370.343 71.0081 365.625 72.2936ZM352.684 58.737C352.173 60.1556 351.957 61.9843 352.455 64.2083C352.465 64.4881 352.619 64.903 352.774 65.3178C352.928 65.7327 353.218 66.0027 353.778 65.9832C356.267 65.0558 357.279 61.9386 357.61 59.4054C357.716 58.4211 357.542 57.4466 357.088 56.4819C355.741 54.0074 353.151 56.059 352.684 58.737ZM393.873 69.3459C392.479 69.5347 391.534 70.5483 390.434 71.1471C388.239 72.4845 386.189 73.9569 383.99 75.1544C380.685 76.8107 378.317 77.1736 375.609 75.8673C371.889 73.6158 375.044 63.6996 378.052 57.5709C379.368 55.1435 380.685 52.7161 382.145 50.4237C387.854 41.399 394.277 32.7696 401.279 24.6803C404.514 21.0651 407.9 17.725 411.86 14.785C413.36 13.6119 415.009 12.7138 416.799 11.8108C418.593 11.0477 420.422 11.264 422.145 12.4646C423.578 13.3952 424.346 15.3295 423.98 16.8832C423.349 18.8665 422.433 20.7196 421.233 22.4425C418.441 26.7426 415.07 30.5025 411.12 33.7223C406.365 37.9509 401.021 41.3594 395.532 44.633C394.297 45.3766 392.912 45.8452 391.368 45.759C390.384 45.6533 389.699 46.0974 389.164 46.8166C385.957 51.2712 383.175 55.8511 380.828 60.836C379.126 64.2575 377.849 67.8042 377.562 71.5966C376.233 77.6667 384.552 71.2124 389.347 68.1031C391.402 66.7706 392.597 64.9078 392.929 62.3746C393.251 59.5617 394.697 56.8496 396.863 54.6727C397.673 53.8039 398.623 52.9302 399.868 52.4665C401.517 51.5683 403.216 52.0694 404.649 52.9999C405.079 53.2651 405.388 54.0948 405.407 54.6545C405.432 55.354 405.326 56.3383 404.791 57.0574C403.865 58.6307 402.655 60.0738 401.444 61.5169C400.234 62.9601 398.879 64.2682 397.524 65.5762C396.713 66.445 396.912 68.1191 397.926 69.0643C398.215 69.3344 398.505 69.6045 398.79 69.7346C401.062 70.6358 403.325 71.2572 405.689 70.7544C408.753 70.2272 411.802 69.2802 414.696 67.9184C418.97 65.948 423.099 63.8426 427.228 61.7372L429.577 60.8147C429.857 60.8049 430.291 61.21 430.581 61.4801C430.721 61.4752 430.595 61.8998 430.46 62.0446C430.055 62.479 429.795 63.0484 429.245 63.3478C424.306 66.322 419.212 68.8813 413.959 70.8859C412.164 71.649 410.22 72.1371 408.411 72.4805C404.793 73.1672 401.271 72.5897 397.859 71.1679C396.44 70.6571 395.157 70.0015 393.873 69.3459ZM393.485 42.1829C393.905 42.1683 394.324 42.1536 394.739 41.9991L404.733 35.3462C408.148 32.8455 411.268 29.9349 413.964 26.8989C416.389 24.1526 418.53 21.2761 419.957 18.0043C420.483 17.0054 420.728 16.0162 420.414 15.0466C420.264 14.7716 419.69 14.3714 419.55 14.3763C418.716 14.5456 417.886 14.8547 417.201 15.2989C413.776 17.5198 410.786 20.1457 408.086 23.0417C402.815 28.549 398.118 34.4565 393.571 40.639L393.19 41.773C393.195 41.9129 393.48 42.043 393.485 42.1829ZM398.495 57.2773C394.665 59.9326 396.682 61.5431 400.213 58.338C402.928 55.8617 401.249 55.9203 398.495 57.2773ZM442.45 67.9298C443.204 61.4595 445.407 68.3868 433.869 62.9062C433.174 63.0705 432.639 63.7896 432.239 64.364C430.523 67.3657 428.662 70.2324 426.516 72.9689C425.98 73.6881 425.161 74.277 424.48 74.8611C423.935 75.3004 422.806 75.0597 422.362 74.3747C422.362 74.3747 422.213 74.0998 422.348 73.955C423.823 72.0824 425.434 70.0649 426.34 67.932C426.73 67.0779 427.4 66.2139 427.226 65.2394C427.173 63.7004 427.693 62.5615 428.778 61.543C430.273 60.23 431.474 58.5071 432.53 56.6491C433.851 54.3616 435.172 52.0741 436.633 49.7817C436.888 49.0724 438.147 49.0284 438.452 49.7182C438.741 49.9883 439.036 50.3982 438.905 50.683C438.39 51.9617 438.009 53.0957 437.349 54.2395L435.397 58.5102C434.871 59.5091 435.18 60.3389 435.909 61.1539C440.084 64.3702 443.832 63.3988 447 57.8248C449.372 53.5394 451.368 50.5279 453.977 49.036C455.207 48.1525 456.245 49.7973 455.209 52.2149C453.888 54.5024 452.417 56.515 450.527 58.5422C447.421 61.8726 445.739 65.8537 444.911 70.2253C444.791 70.7898 444.95 71.3446 445.11 71.8994C445.424 72.869 447.083 72.2507 447.498 72.0961C450.247 70.5993 452.283 68.7071 454.163 66.4C456.189 64.228 458.209 61.9161 460.085 59.4692C460.49 59.0348 462.55 57.8422 462.608 59.5211C462.623 59.9409 462.498 60.3655 462.223 60.5152C460.082 63.3917 457.661 66.2779 455.091 68.8892C449.935 73.692 442.063 76.9088 441.862 71.1723C441.963 70.048 442.204 68.919 442.45 67.9298ZM464.954 71.6266C453.205 80.1619 455.482 57.1084 467.447 46.7445C468.122 46.0205 468.802 45.4364 469.787 45.5421C470.066 45.5323 470.211 45.6674 470.216 45.8073C470.361 45.9423 470.515 46.3572 470.525 46.637C470.53 46.7769 470.255 46.9266 470.12 47.0714C465.625 50.7305 462.858 55.7301 460.81 61.265C460.053 63.6728 459.587 66.3507 459.395 68.879C459.419 69.5786 459.583 70.2732 459.883 70.8231C460.042 71.3779 460.906 72.0482 462.141 71.3046C464.066 70.2568 465.561 68.9438 466.756 67.081C466.747 66.8011 466.732 66.3814 466.307 66.2561C465.883 66.1309 465.323 66.1504 464.754 65.8901C463.475 65.3745 463.156 64.2649 463.527 62.8511C464.052 61.8522 464.578 60.8532 465.528 59.9795C466.208 59.3954 467.023 58.6665 467.872 58.9171C470.685 59.2391 472.46 57.9163 474.071 55.8989C477.036 52.5734 480.012 49.5277 482.983 46.3421C483.388 45.9076 484.073 45.4635 484.618 45.0242C484.888 44.7346 485.592 44.8501 486.031 45.3951C486.176 45.5301 486.471 45.9401 486.341 46.2248C486.095 47.214 485.565 48.073 485.179 49.0671C483.468 52.2087 481.761 55.4903 480.194 58.7669C478.878 61.1943 477.987 63.747 476.821 66.4494C476.695 66.874 476.71 67.2937 476.59 67.8583C476.643 69.3973 478.129 67.8045 481.519 64.6043C484.229 61.9881 486.66 59.3817 489.37 56.7655C489.505 56.6207 490.07 56.741 490.215 56.8761C490.504 57.1461 490.524 57.7058 490.389 57.8506C487.293 61.4608 484.062 65.2159 480.392 68.4259C479.582 69.2947 478.487 70.0334 477.527 70.6273C475.882 71.6653 473.609 70.7641 473.565 69.5048C474.027 66.687 476.09 61.5719 477.656 58.2952C478.447 56.8667 479.088 55.1633 479.874 53.595C479.874 53.595 479.724 53.32 479.584 53.3249C479.164 53.3396 478.889 53.4893 478.615 53.6389C477.129 55.2317 475.779 56.6798 474.434 58.2677C472.948 59.8605 471.883 61.4386 471.256 63.5618C470.114 66.9637 468.109 69.6954 464.954 71.6266ZM468.785 60.9865C468.64 60.8514 468.495 60.7164 468.355 60.7213C467.376 60.7555 466.981 61.4697 466.585 62.184C466.45 62.3288 466.465 62.7485 466.465 62.7485C466.615 63.0234 467.039 63.1487 467.309 62.8591C467.854 62.4198 468.399 61.9805 468.66 61.4111C468.795 61.2663 468.79 61.1264 468.785 60.9865ZM506.006 35.8722C505.866 35.8771 505.856 35.5972 505.711 35.4622C505.706 35.3223 505.697 35.0425 505.832 34.8977C506.102 34.6081 506.372 34.3185 506.652 34.3087C509.006 33.526 511.365 32.8833 513.724 32.2406C514.278 32.0812 514.993 32.4765 515.417 32.6017C515.842 32.727 515.992 33.0019 515.866 33.4266C515.876 33.7064 515.741 33.8512 515.746 33.9911L514.926 34.5801C512.587 35.7825 510.223 36.2853 506.99 35.9779C507.135 36.1129 506.57 35.9925 506.006 35.8722ZM527.183 60.6282C527.607 60.7535 527.622 61.1732 527.357 61.6027C527.362 61.7426 527.227 61.8874 527.231 62.0273C522.756 66.2461 517.456 70.9139 513.553 71.4705C511.039 71.6983 509.022 70.0878 508.799 67.7141C508.62 66.5997 508.716 65.3356 508.956 64.2065C509.168 62.2379 509.799 60.2546 510.71 58.2616C511.505 56.9731 512.301 55.6845 512.957 54.4009C512.527 54.1357 511.828 54.1601 511.418 54.4546C510.323 55.1933 509.503 55.7823 508.693 56.6511L500.687 64.075C498.917 65.5377 497.152 67.1402 495.237 68.4679C494.282 69.2016 493.047 69.9452 491.802 70.4089C490.978 70.858 489.853 70.7571 489.004 70.5066C487.595 70.2757 486.572 69.0506 486.528 67.7914C486.494 66.812 486.464 65.9725 486.705 64.8434C487.051 62.73 487.953 60.4572 489.009 58.5992C490.975 54.7482 493.526 51.5773 496.642 48.5267C497.187 48.0874 498.316 48.3281 498.48 49.0228C498.63 49.2978 498.649 49.8574 498.519 50.1421C497.314 51.7252 496.118 53.588 494.773 55.176C492.772 58.0476 491.195 61.0444 490.193 64.4414C489.943 65.2907 489.832 66.1351 489.871 67.2544C489.736 67.3992 490.035 67.9491 490.325 68.2191C490.61 68.3493 491.034 68.4745 491.304 68.1849C492.404 67.5862 493.369 67.1322 494.179 66.2634C496.494 64.3615 498.799 62.1797 500.97 60.1427C504.505 57.0775 507.9 54.0171 511.44 51.0918C512.66 49.9285 513.9 49.3249 515.27 48.4365C515.82 48.1371 516.659 48.1078 517.504 48.2184C518.348 48.329 519.231 49.5589 518.701 50.418C517.92 52.1263 517.139 53.8346 516.074 55.4127C514.488 58.1297 513.051 61.1217 512.179 64.234C511.953 65.7828 511.587 67.3366 512.061 68.861C512.215 69.2758 513.204 69.5214 513.479 69.3718C514.169 69.0675 514.859 68.7632 515.539 68.1792C517.454 66.8515 519.224 65.3889 520.999 64.0661L525.783 60.6771C525.918 60.5323 526.338 60.5176 526.758 60.5029C527.038 60.4932 527.178 60.4883 527.183 60.6282Z" fill="#FCB671"/>
</g>
<defs>
<clipPath id="clip0_42_324">
<rect width="532" height="175" fill="white"/>
</clipPath>
</defs>
</svg>
